# xmcd
# 
# Track frame offsets:
#     150
#     13184
#     27459
#     42326
#     56203
#     69962
#     85420
#     98910
#     112986
#     126410
#     141259
#     155754
#     170320
#     184981
#     198702
#     212063
#     226491
#     240263
#     252559
#     266557
#     280399
#     295428
#     308644
# 
# Disc length: 4282
# 
# Revision: 0
# Processed by: cddbd v1.5.2PL0 Copyright (c) Steve Scherf et al.
# Submitted via: fre:ac v1.0.31
# 
DISCID=6310b817
DTITLE=Alberta Hunter - Collection 1921-40
DYEAR=2017
DGENRE=Blues
TTITLE0=He's A Darned Good Man (To Have Hanging Around)
TTITLE1=How Long, Sweet Daddy, How Long
TTITLE2=Bring Back The Joys
TTITLE3=Someday Sweetheart
TTITLE4=Downhearted Blues
TTITLE5=Why Did You Pick Me Up When I Was Down
TTITLE6=Gonna Have You, Aint Gonna Leave You Alone
TTITLE7=Daddy Blues
TTITLE8=Don't Pan Me (Don't Talk About Me)
TTITLE9=After All These  Years
TTITLE10=I'm Going Away Just To Wear You Off My Mind
TTITLE11=Jazzin' Baby Blues
TTITLE12=You Can't Have It All
TTITLE13=Lonesome Monday Morning Blues
TTITLE14=Come On Home
TTITLE15=You Shall Reap What You Sow
TTITLE16='Tain't Nobody's Business If I Do
TTITLE17=If You Want To Keep Your Daddy Home
TTITLE18=Bleeding Hearted Blues
TTITLE19=Chirpin' The Blues
TTITLE20=Someone Else Will Take Your Place
TTITLE21=Vamping Brown
TTITLE22=You Can Have My Man (If He Comes To See You Too)
EXTD=
EXTT0=
EXTT1=
EXTT2=
EXTT3=
EXTT4=
EXTT5=
EXTT6=
EXTT7=
EXTT8=
EXTT9=
EXTT10=
EXTT11=
EXTT12=
EXTT13=
EXTT14=
EXTT15=
EXTT16=
EXTT17=
EXTT18=
EXTT19=
EXTT20=
EXTT21=
EXTT22=
PLAYORDER=
